<svg width="88" height="88" viewBox="0 0 88 88" fill="none" xmlns="http://www.w3.org/2000/svg">
<rect width="88" height="88" fill="white"/>
<path d="M85 66.7552C82.0536 67.5205 80.2311 66.7888 78.5959 64.2809L66.9674 47.8475L65.2866 45.5723L51.7065 64.3352C50.1548 66.5923 48.5272 67.5748 45.6315 66.7759L63.0212 42.9325L46.8313 21.3954C49.6157 20.8421 51.5394 21.1239 53.248 23.6706L65.3094 40.3082L77.4594 23.7611C79.0161 21.504 80.6893 20.6456 83.4838 21.4781L77.2063 29.9792L68.7013 41.2907C67.6888 42.5835 67.828 43.4677 68.7595 44.7165L85 66.7552ZM4.02025 42.5344L5.44281 35.3881C9.31562 21.2454 25.1866 15.3686 36.1317 24.1076C42.5282 29.2475 44.1178 36.5179 43.8014 44.6622H7.74625C7.20456 59.3219 17.5346 68.1695 30.7047 63.6552C35.3242 62.0703 38.0453 58.3756 39.4071 53.7528C40.0982 51.4362 41.2423 51.0742 43.3736 51.7361C42.2852 57.5173 39.8298 62.3469 34.6408 65.3694C26.8876 69.894 15.8209 68.4306 9.99906 62.1427C6.53125 58.4946 5.09856 53.8717 4.45563 48.9283C4.35438 48.1113 4.15187 47.333 4 46.5496C4.0135 45.2121 4.02025 43.8745 4.02025 42.5369V42.5344ZM7.81206 41.5519H40.3943C40.1817 30.9514 33.7194 23.4224 24.8879 23.3578C15.1932 23.2802 8.23225 30.6308 7.81206 41.5519V41.5519Z" fill="black"/>
</svg>
