<svg width="161" height="120" viewBox="0 0 161 120" fill="none" xmlns="http://www.w3.org/2000/svg">
<rect x="4" y="3" width="152" height="117" rx="27" fill="white"/>
<path d="M134.336 119.988H25.7039C11.5299 119.988 0 108.458 0 94.2839V25.7039C0 11.5316 11.5316 0 25.7039 0H134.336C148.508 0 160.038 11.5316 160.038 25.7039V94.2839C160.038 108.458 148.508 119.988 134.336 119.988ZM25.7039 7.51647C15.6749 7.51647 7.51647 15.6749 7.51647 25.7039V94.2839C7.51647 104.313 15.6749 112.473 25.7039 112.473H134.336C144.365 112.473 152.524 104.313 152.524 94.2839V25.7039C152.524 15.6749 144.365 7.51647 134.336 7.51647H25.7039V7.51647Z" fill="black"/>
<path d="M19.6385 26.0614C38.8502 44.7823 58.0619 63.5014 77.2736 82.2223C80.8549 85.7112 86.3513 80.2272 82.7647 76.7312C63.553 58.0121 44.3413 39.2912 25.1296 20.572C21.5483 17.0814 16.0519 22.5672 19.6385 26.0614Z" fill="black"/>
<path d="M82.7646 82.2223C101.976 63.5032 121.188 44.7823 140.4 26.0631C143.985 22.569 138.492 17.0814 134.909 20.572C115.697 39.2912 96.4853 58.0121 77.2735 76.7312C73.6887 80.2254 79.1816 85.713 82.7646 82.2223Z" fill="black"/>
<path d="M140.188 95.4735C127.405 83.3497 114.619 71.2277 101.836 59.1039C98.2101 55.6666 92.7102 61.1471 96.3448 64.595C109.128 76.7188 121.914 88.8408 134.697 100.965C138.323 104.402 143.823 98.9197 140.188 95.4735Z" fill="black"/>
<path d="M25.6879 100.963C38.4714 88.839 51.2567 76.717 64.0402 64.5932C67.6731 61.1471 62.1766 55.6631 58.5491 59.1021C45.7656 71.2259 32.9803 83.3479 20.1968 95.4717C16.564 98.9179 22.0604 104.404 25.6879 100.963Z" fill="black"/>
</svg>
