<svg width="85" height="85" viewBox="0 0 85 85" fill="none" xmlns="http://www.w3.org/2000/svg">
<g clip-path="url(#clip0_57_2)">
<path fill-rule="evenodd" clip-rule="evenodd" d="M46.0308 38.1753V38.051C46.0054 38.0927 45.9702 38.1344 45.9482 38.1753H46.0308Z" fill="white"/>
<path fill-rule="evenodd" clip-rule="evenodd" d="M0 0V85H85V0H0ZM26.4382 70.6158H13.8272V32.6747H26.4382V70.6158ZM20.1327 27.4963H20.0494C15.819 27.4963 13.0769 24.5818 13.0769 20.939C13.0769 17.2161 15.8991 14.3842 20.2152 14.3842C24.5323 14.3842 27.1852 17.2161 27.2678 20.939C27.2678 24.5818 24.5323 27.4963 20.1327 27.4963ZM71.9231 70.6158H59.3087V50.3172C59.3087 45.2189 57.4862 41.7387 52.9206 41.7387C49.4339 41.7387 47.362 44.0819 46.4492 46.3517C46.1175 47.1625 46.0308 48.2895 46.0308 49.4265V70.6159H33.414C33.414 70.6159 33.583 36.2343 33.414 32.6749H46.0308V38.0512C47.707 35.4719 50.6985 31.7842 57.3995 31.7842C65.7009 31.7842 71.9231 37.2055 71.9231 48.8586V70.6158Z" fill="white"/>
</g>
<defs>
<clipPath id="clip0_57_2">
<rect width="85" height="85" fill="white"/>
</clipPath>
</defs>
</svg>
