<svg width="27" height="60" viewBox="0 0 27 60" fill="none" xmlns="http://www.w3.org/2000/svg">
<path d="M13.0512 0L14.6845 3.01232C15.0401 3.5557 15.454 4.06014 15.9192 4.51701C17.2872 5.8586 18.5893 7.26484 19.7551 8.771C22.5242 12.3373 24.3927 16.2974 25.7278 20.5852C26.5279 23.2037 26.9624 25.8869 26.9954 28.6024C27.1303 36.718 24.2923 43.6875 18.5534 49.4799C17.6235 50.3981 16.6193 51.2409 15.5506 52C14.9812 52 14.716 51.5592 14.4822 51.1815C14.0327 50.4468 13.781 49.643 13.6476 48.826C13.4468 47.8445 13.3135 46.8629 13.3809 45.8475V45.3891C13.3479 45.2906 12.8475 0.2307 13.0467 0.00147002L13.0512 0Z" fill="#599636"/>
<path d="M12.6454 0.0653888C12.5825 -0.0675719 12.5197 0.0328878 12.4583 0.0978908C12.489 0.755308 12.2712 1.34772 11.9277 1.90763C11.555 2.46902 11.0565 2.8945 10.5595 3.35543C7.79229 5.88907 5.61706 8.94864 3.87464 12.3702C1.57375 16.9765 0.361873 21.9108 0.0212074 27.1096C-0.132371 28.9858 0.579675 35.5984 1.14094 37.5056C2.66276 42.5729 5.39925 46.8159 8.95949 50.5003C9.8307 51.3867 10.7633 52.2111 11.7267 53C12.0059 53 12.038 52.737 12.0995 52.5391C12.222 52.1189 12.3153 51.6898 12.3787 51.2553C12.6579 49.611 12.8143 47.9652 13 46.3209L12.6579 0.0653888H12.6454Z" fill="#6CAC48"/>
<path d="M14.2785 54.0496C14.3368 53.2933 14.6671 52.6684 15 52.0435C14.6541 51.881 14.3938 51.5501 14.1917 51.1867C14.0181 50.8573 13.8744 50.4481 13.7591 50.1009C13.3549 48.7197 13.2668 47.272 13.1528 45.8568V45C13.0104 45.133 12.9793 46.2498 12.9793 46.4152C12.8925 47.9279 12.7202 49.4096 12.4611 50.8558C12.3744 51.4467 12.3187 52.0406 12 52.5665C12 52.633 12 52.6994 12.0285 52.7969C12.5466 54.5401 12.6917 56.3172 12.7798 58.1268V58.7842C12.7798 59.5731 12.7513 59.4091 13.3277 59.6706C13.5583 59.7695 13.8199 59.8035 14.0492 60C14.2228 60 14.2513 59.8375 14.2513 59.7045L14.1645 58.6188V55.5904C14.136 55.0645 14.2228 54.5371 14.2811 54.0437L14.2785 54.0496Z" fill="#C2BFBF"/>
</svg>
