<svg width="171" height="103" viewBox="0 0 171 103" fill="none" xmlns="http://www.w3.org/2000/svg">
<rect width="171" height="103" fill="white"/>
<path d="M47.742 31.4567H74.7131V33.5962H50.2143V49.6989H73.2522V51.8384H50.2143V69.5176H74.994V71.6572H47.742V31.4567ZM77.1293 31.4567H79.9949L92.6938 49.1359L105.674 31.4567L123.328 9L94.3233 50.9939L109.27 71.6572H106.292L92.6938 52.8519L79.0397 71.6572H76.1178L91.1767 50.9939L77.1293 31.4567ZM110.337 33.5962V31.4567H141.073V33.5962H126.913V71.6572H124.441V33.5962H110.337ZM14 31.4567H17.0904L59.7058 95.1022L42.0949 71.6572L16.5847 34.497L16.4724 71.6572H14V31.4567ZM140.824 68.872C140.319 68.872 139.94 68.4814 139.94 67.9766C139.94 67.4718 140.319 67.0812 140.824 67.0812C141.335 67.0812 141.708 67.4718 141.708 67.9766C141.708 68.4814 141.335 68.872 140.824 68.872ZM143.254 66.5163H144.576C144.595 67.2314 145.118 67.7122 145.887 67.7122C146.747 67.7122 147.234 67.1953 147.234 66.2278V60.0982H148.581V66.2338C148.581 67.9766 147.571 68.9801 145.899 68.9801C144.33 68.9801 143.254 68.0066 143.254 66.5163ZM150.343 66.4382H151.678C151.792 67.2614 152.598 67.7843 153.759 67.7843C154.841 67.7843 155.635 67.2254 155.635 66.4562C155.635 65.7951 155.13 65.3985 153.981 65.1281L152.863 64.8577C151.293 64.4911 150.578 63.7339 150.578 62.4599C150.578 60.9155 151.841 59.8879 153.735 59.8879C155.497 59.8879 156.784 60.9155 156.862 62.3758H155.551C155.425 61.5765 154.727 61.0777 153.717 61.0777C152.652 61.0777 151.943 61.5885 151.943 62.3698C151.943 62.9887 152.4 63.3433 153.53 63.6077L154.486 63.8421C156.266 64.2567 157 64.9779 157 66.2819C157 67.9405 155.713 68.9801 153.657 68.9801C151.732 68.9801 150.439 67.9886 150.343 66.4382Z" fill="black"/>
</svg>
