<svg width="64" height="64" viewBox="0 0 64 64" fill="none" xmlns="http://www.w3.org/2000/svg">
<g clip-path="url(#clip0_203_2)">
<path d="M30 7.54C30 7.29022 30.0492 7.0429 30.1448 6.81214C30.2404 6.58137 30.3805 6.3717 30.5571 6.19508C30.7337 6.01846 30.9434 5.87836 31.1741 5.78278C31.4049 5.6872 31.6522 5.638 31.902 5.638C32.1518 5.638 32.3991 5.6872 32.6299 5.78278C32.8606 5.87836 33.0703 6.01846 33.2469 6.19508C33.4235 6.3717 33.5636 6.58137 33.6592 6.81214C33.7548 7.0429 33.804 7.29022 33.804 7.54C33.804 8.04444 33.6036 8.52822 33.2469 8.88492C32.8902 9.24161 32.4064 9.442 31.902 9.442C31.3976 9.442 30.9138 9.24161 30.5571 8.88492C30.2004 8.52822 30 8.04444 30 7.54M7.308 24.76C7.308 24.5102 7.35719 24.2629 7.45278 24.0321C7.54836 23.8014 7.68846 23.5917 7.86508 23.4151C8.0417 23.2385 8.25137 23.0984 8.48213 23.0028C8.7129 22.9072 8.96022 22.858 9.21 22.858C9.45977 22.858 9.7071 22.9072 9.93786 23.0028C10.1686 23.0984 10.3783 23.2385 10.5549 23.4151C10.7315 23.5917 10.8716 23.8014 10.9672 24.0321C11.0628 24.2629 11.112 24.5102 11.112 24.76C11.112 25.2644 10.9116 25.7482 10.5549 26.1049C10.1982 26.4616 9.71444 26.662 9.21 26.662C8.70556 26.662 8.22177 26.4616 7.86508 26.1049C7.50839 25.7482 7.308 25.2644 7.308 24.76M52.692 24.848C52.692 24.3436 52.8924 23.8598 53.2491 23.5031C53.6058 23.1464 54.0896 22.946 54.594 22.946C55.0984 22.946 55.5822 23.1464 55.9389 23.5031C56.2956 23.8598 56.496 24.3436 56.496 24.848C56.496 25.3524 56.2956 25.8362 55.9389 26.1929C55.5822 26.5496 55.0984 26.75 54.594 26.75C54.0896 26.75 53.6058 26.5496 53.2491 26.1929C52.8924 25.8362 52.692 25.3524 52.692 24.848M12.812 27.46C13.2323 27.2723 13.561 26.9257 13.7264 26.4962C13.8917 26.0666 13.88 25.589 13.694 25.168L12.85 23.26H16.17V38.22H9.472C8.64555 35.3167 8.38816 32.281 8.714 29.28L12.812 27.46ZM26.696 27.828V23.418H34.6C35.008 23.418 37.48 23.89 37.48 25.738C37.48 27.274 35.58 27.826 34.02 27.826L26.696 27.828ZM15.904 51.57C15.904 51.3202 15.9532 51.0729 16.0488 50.8421C16.1444 50.6114 16.2845 50.4017 16.4611 50.2251C16.6377 50.0485 16.8474 49.9084 17.0781 49.8128C17.3089 49.7172 17.5562 49.668 17.806 49.668C18.0558 49.668 18.3031 49.7172 18.5339 49.8128C18.7646 49.9084 18.9743 50.0485 19.1509 50.2251C19.3275 50.4017 19.4676 50.6114 19.5632 50.8421C19.6588 51.0729 19.708 51.3202 19.708 51.57C19.708 52.0744 19.5076 52.5582 19.1509 52.9149C18.7942 53.2716 18.3104 53.472 17.806 53.472C17.3016 53.472 16.8178 53.2716 16.4611 52.9149C16.1044 52.5582 15.904 52.0744 15.904 51.57M44.09 51.658C44.09 51.1536 44.2904 50.6698 44.6471 50.3131C45.0038 49.9564 45.4876 49.756 45.992 49.756C46.4964 49.756 46.9802 49.9564 47.3369 50.3131C47.6936 50.6698 47.894 51.1536 47.894 51.658C47.894 52.1624 47.6936 52.6462 47.3369 53.0029C46.9802 53.3596 46.4964 53.56 45.992 53.56C45.4876 53.56 45.0038 53.3596 44.6471 53.0029C44.2904 52.6462 44.09 52.1624 44.09 51.658ZM44.678 47.344C43.738 47.144 42.818 47.74 42.618 48.678L41.664 53.134C38.5936 54.5246 35.2593 55.2361 31.8887 55.2199C28.5182 55.2037 25.1908 54.4601 22.134 53.04L21.18 48.584C20.98 47.644 20.06 47.048 19.12 47.25L15.186 48.094C14.455 47.3411 13.7755 46.54 13.152 45.696H32.292C32.508 45.696 32.652 45.656 32.652 45.46V38.69C32.652 38.49 32.508 38.454 32.292 38.454H26.692V34.162H32.746C33.298 34.162 35.7 34.322 36.47 37.39L37.6 42.39C37.96 43.49 39.426 45.696 40.986 45.696H50.866C50.2029 46.5829 49.4778 47.4217 48.696 48.206L44.678 47.344ZM55.306 29.468C55.4405 30.8193 55.4572 32.1798 55.356 33.534H52.956C52.716 33.534 52.616 33.694 52.616 33.928V35.032C52.616 37.632 51.152 38.192 49.868 38.338C48.648 38.478 47.288 37.826 47.124 37.078C46.404 33.022 45.204 32.158 43.324 30.658C45.678 29.162 48.128 26.958 48.128 24.004C48.128 20.816 45.942 18.808 44.452 17.824C42.362 16.444 40.048 16.17 39.424 16.17H14.554C17.9893 12.3315 22.5944 9.73269 27.656 8.776L30.586 11.85C31.246 12.544 32.346 12.57 33.038 11.906L36.318 8.772C39.6591 9.39759 42.8239 10.743 45.5928 12.7147C48.3616 14.6864 50.6681 17.2372 52.352 20.19L50.108 25.258C49.922 25.679 49.9103 26.1566 50.0756 26.5862C50.2409 27.0157 50.5697 27.3623 50.99 27.55L55.306 29.468ZM60.902 29.548L60.826 28.764L63.138 26.608C63.608 26.168 63.432 25.288 62.832 25.064L59.878 23.96L59.646 23.2L61.486 20.64C61.862 20.12 61.516 19.29 60.886 19.186L57.77 18.68L57.396 17.98L58.706 15.106C58.974 14.52 58.476 13.772 57.832 13.796L54.672 13.906L54.172 13.3L54.898 10.22C55.044 9.594 54.41 8.96 53.784 9.106L50.704 9.832L50.096 9.332L50.206 6.172C50.23 5.532 49.482 5.032 48.898 5.298L46.026 6.608L45.326 6.232L44.818 3.116C44.718 2.484 43.884 2.14 43.364 2.516L40.804 4.356L40.044 4.126L38.94 1.172C38.716 0.571999 37.834 0.395999 37.396 0.863999L35.24 3.176L34.456 3.1L32.792 0.409999C32.456 -0.134001 31.552 -0.134001 31.218 0.409999L29.554 3.1L28.77 3.176L26.61 0.859999C26.17 0.391999 25.29 0.565999 25.066 1.168L23.962 4.122L23.202 4.352L20.642 2.512C20.122 2.136 19.29 2.482 19.188 3.112L18.68 6.228L17.98 6.604L15.108 5.294C14.524 5.028 13.774 5.528 13.8 6.168L13.91 9.328L13.302 9.828L10.222 9.102C9.596 8.956 8.962 9.59 9.108 10.216L9.834 13.296L9.334 13.902L6.174 13.792C5.534 13.772 5.034 14.516 5.3 15.102L6.61 17.976L6.234 18.676L3.118 19.182C2.486 19.282 2.142 20.116 2.518 20.636L4.358 23.196L4.126 23.956L1.172 25.06C0.571998 25.284 0.395998 26.166 0.865998 26.604L3.178 28.76L3.102 29.544L0.411998 31.208C-0.132002 31.544 -0.132002 32.448 0.411998 32.782L3.102 34.446L3.178 35.23L0.859998 37.394C0.391998 37.834 0.565998 38.714 1.166 38.938L4.12 40.042L4.352 40.802L2.512 43.362C2.138 43.882 2.482 44.714 3.112 44.816L6.226 45.322L6.602 46.022L5.292 48.894C5.026 49.478 5.528 50.228 6.166 50.204L9.326 50.094L9.826 50.702L9.1 53.782C8.954 54.406 9.588 55.042 10.214 54.894L13.294 54.168L13.902 54.668L13.792 57.828C13.768 58.468 14.516 58.968 15.1 58.702L17.972 57.392L18.672 57.768L19.18 60.882C19.28 61.516 20.114 61.858 20.634 61.486L23.194 59.642L23.954 59.874L25.058 62.828C25.282 63.428 26.164 63.604 26.602 63.134L28.758 60.822L29.542 60.902L31.206 63.592C31.542 64.132 32.442 64.136 32.78 63.592L34.444 60.902L35.228 60.822L37.384 63.134C37.824 63.604 38.704 63.428 38.928 62.828L40.032 59.874L40.792 59.642L43.352 61.486C43.872 61.86 44.704 61.516 44.806 60.882L45.314 57.768L46.014 57.392L48.886 58.702C49.47 58.968 50.218 58.47 50.194 57.828L50.084 54.668L50.69 54.168L53.77 54.894C54.396 55.04 55.03 54.406 54.884 53.782L54.158 50.702L54.658 50.094L57.818 50.204C58.458 50.23 58.958 49.478 58.692 48.894L57.382 46.022L57.756 45.322L60.872 44.816C61.506 44.716 61.852 43.884 61.472 43.362L59.632 40.802L59.864 40.042L62.818 38.938C63.418 38.712 63.594 37.832 63.124 37.394L60.812 35.238L60.888 34.454L63.578 32.79C64.122 32.454 64.124 31.554 63.578 31.216L60.902 29.548Z" fill="#E76303"/>
</g>
<defs>
<clipPath id="clip0_203_2">
<rect width="64" height="64" fill="white"/>
</clipPath>
</defs>
</svg>
