<svg width="64" height="64" viewBox="0 0 64 64" fill="none" xmlns="http://www.w3.org/2000/svg">
<g clip-path="url(#clip0_64_17)">
<path d="M27.3001 0.456C28.2201 -0.194 29.0321 -0.0839997 30.0071 0.456L38.1821 5.156C38.4521 5.318 38.9401 5.21 39.2121 5.102L47.2131 0.456C48.1331 -0.0839997 48.8911 -0.194 49.8131 0.402L62.1001 7.494C62.9661 7.981 63.3451 8.631 63.3451 9.604V23.896C63.3451 24.816 63.0201 25.412 62.2081 25.899L54.9541 30.069C56.6861 31.477 56.6861 31.477 56.6861 33.696V47.068C56.6861 47.934 56.3611 48.421 55.6031 48.855L30.3221 63.472C29.1321 64.176 28.2651 64.176 27.0741 63.472L1.79005 48.855C0.980053 48.422 0.654053 47.772 0.654053 46.906V17.13C0.654053 16.264 0.979053 15.668 1.73705 15.235L27.3001 0.456ZM27.2461 33.696C27.2461 33.1 27.0841 32.776 26.5961 32.506L3.47005 19.24V45.713C3.47005 46.363 3.68705 46.687 4.22805 47.013L27.1281 60.213L27.2461 33.696ZM53.0161 46.96C53.5561 46.635 53.7741 46.364 53.7741 45.715L53.7201 34.617L43.0001 40.734C41.4841 41.6 40.4561 41.004 40.4561 39.272V27.902C40.4561 27.632 40.4561 27.306 40.4021 26.928L30.6571 32.558C30.1701 32.828 30.0611 33.208 30.0611 33.695V60.223L53.0161 46.96ZM27.9941 30.07C28.1643 30.2024 28.3739 30.2743 28.5896 30.2743C28.8052 30.2743 29.0148 30.2024 29.1851 30.07L34.8151 26.822L38.9291 24.386L37.5211 23.574L27.9931 18.052C26.8031 17.348 26.8031 16.049 27.9931 15.345L32.9731 12.475C33.5131 12.205 33.7851 11.825 33.6771 11.23C33.6231 10.96 33.6771 10.743 33.6771 10.472C33.5151 9.064 33.7311 7.872 35.2471 7.278C35.3011 7.278 35.3551 7.17 35.4091 7.061L29.1291 3.434C28.5891 3.109 28.2631 3.164 27.7761 3.434L4.98505 16.697L27.9941 30.07ZM58.9071 9.064C58.6901 8.902 58.6371 8.847 58.5821 8.847L49.0001 3.325C48.8425 3.26768 48.6749 3.24292 48.5075 3.2522C48.3401 3.26148 48.1763 3.30462 48.0261 3.379L39.5261 8.251L38.2261 9.009C38.4431 9.117 38.4961 9.171 38.5511 9.226L48.1331 14.748C48.3501 14.856 48.8371 14.802 49.1071 14.694L53.2211 12.366L58.9051 9.064H58.9071ZM59.9371 23.79C60.2071 23.628 60.3701 23.194 60.3701 22.87C60.4241 19.405 60.3701 15.94 60.3701 12.42C60.3701 12.203 60.3161 11.987 60.3161 11.77H60.0461L50.4641 17.346C50.1941 17.508 50.0311 17.942 50.0311 18.266V29.473L59.9371 23.79ZM36.7001 11.608V19.025C36.7001 19.565 36.9171 19.891 37.3501 20.108L42.4401 23.031C43.1441 23.411 43.4141 23.951 43.4141 24.709V26.875C43.4141 27.092 43.4681 27.415 43.6311 27.525C44.7141 28.229 45.8511 28.825 47.0411 29.528C47.0951 29.258 47.1491 29.148 47.1491 29.041V18.105C47.1491 17.835 46.8791 17.455 46.6091 17.293L36.7001 11.608ZM43.4671 30.828V37.162L52.1291 32.127C52.0751 32.019 52.0211 31.91 51.9671 31.857C51.7501 31.911 51.5341 32.019 51.3711 32.074C50.7751 32.399 50.1811 32.724 49.6391 33.104C48.9351 33.591 48.2311 33.591 47.4731 33.158C46.1731 32.346 44.8201 31.642 43.4671 30.83V30.828ZM31.5031 16.698C32.3151 17.185 32.9651 17.564 33.6691 17.943V15.399C32.9651 15.886 32.3161 16.265 31.5031 16.699V16.698Z" fill="white"/>
</g>
<defs>
<clipPath id="clip0_64_17">
<rect width="64" height="64" fill="white"/>
</clipPath>
</defs>
</svg>
